<svg width="291" height="74" viewBox="0 0 291 74" fill="none" xmlns="http://www.w3.org/2000/svg">
<path d="M290 47.0844C289.686 51.565 285.579 55.7407 277.969 59.3875C270.405 63.0122 259.579 66.0147 246.255 68.2479C219.618 72.7127 183.125 74.0816 143.098 71.2855C103.071 68.4894 67.124 62.0603 41.3677 53.9355C28.4852 49.8718 18.1828 45.3932 11.1972 40.7522C4.16919 36.0829 0.683591 31.3767 0.997226 26.8962C1.31086 22.4156 5.41818 18.2398 13.0283 14.5931C20.5925 10.9684 31.4186 7.96581 44.7418 5.73265C71.3794 1.26782 107.872 -0.101065 147.899 2.69503C187.926 5.49113 223.873 11.9203 249.629 20.045C262.512 24.1088 272.814 28.5873 279.8 33.2284C286.828 37.8977 290.314 42.6038 290 47.0844Z" stroke="white" stroke-width="1.1261"/>
</svg>
