<svg width="295" height="90" viewBox="0 0 295 90" fill="none" xmlns="http://www.w3.org/2000/svg">
<path d="M60.1366 50.0762L57.5766 45.6282H56.1846V50.0762H54.3606V38.9562H58.2006C59.0539 38.9562 59.7739 39.1055 60.3606 39.4042C60.9579 39.7028 61.4006 40.1028 61.6886 40.6042C61.9873 41.1055 62.1366 41.6655 62.1366 42.2842C62.1366 43.0095 61.9233 43.6708 61.4966 44.2682C61.0806 44.8548 60.4353 45.2548 59.5606 45.4682L62.3126 50.0762H60.1366ZM56.1846 44.1722H58.2006C58.8833 44.1722 59.3953 44.0015 59.7366 43.6602C60.0886 43.3188 60.2646 42.8602 60.2646 42.2842C60.2646 41.7082 60.0939 41.2602 59.7526 40.9402C59.4113 40.6095 58.8939 40.4442 58.2006 40.4442H56.1846V44.1722ZM67.974 50.2202C67.142 50.2202 66.39 50.0335 65.718 49.6602C65.046 49.2762 64.518 48.7428 64.134 48.0602C63.75 47.3668 63.558 46.5668 63.558 45.6602C63.558 44.7642 63.7553 43.9695 64.15 43.2762C64.5446 42.5828 65.0833 42.0495 65.766 41.6762C66.4486 41.3028 67.2113 41.1162 68.054 41.1162C68.8966 41.1162 69.6593 41.3028 70.342 41.6762C71.0246 42.0495 71.5633 42.5828 71.958 43.2762C72.3526 43.9695 72.55 44.7642 72.55 45.6602C72.55 46.5562 72.3473 47.3508 71.942 48.0442C71.5366 48.7375 70.982 49.2762 70.278 49.6602C69.5846 50.0335 68.8166 50.2202 67.974 50.2202ZM67.974 48.6362C68.4433 48.6362 68.8806 48.5242 69.286 48.3002C69.702 48.0762 70.038 47.7402 70.294 47.2922C70.55 46.8442 70.678 46.3002 70.678 45.6602C70.678 45.0202 70.5553 44.4815 70.31 44.0442C70.0646 43.5962 69.7393 43.2602 69.334 43.0362C68.9286 42.8122 68.4913 42.7002 68.022 42.7002C67.5526 42.7002 67.1153 42.8122 66.71 43.0362C66.3153 43.2602 66.0006 43.5962 65.766 44.0442C65.5313 44.4815 65.414 45.0202 65.414 45.6602C65.414 46.6095 65.654 47.3455 66.134 47.8682C66.6246 48.3802 67.238 48.6362 67.974 48.6362ZM74.3211 38.9562H76.3051L74.6251 42.7642H73.3451L74.3211 38.9562ZM85.5241 41.2602L80.1161 54.2202H78.2281L80.0201 49.9322L76.5481 41.2602H78.5801L81.0601 47.9802L83.6361 41.2602H85.5241ZM91.1406 41.1162C91.8126 41.1162 92.4099 41.2602 92.9326 41.5482C93.4659 41.8362 93.8819 42.2628 94.1806 42.8282C94.4899 43.3935 94.6446 44.0762 94.6446 44.8762V50.0762H92.8366V45.1482C92.8366 44.3588 92.6393 43.7562 92.2446 43.3402C91.8499 42.9135 91.3113 42.7002 90.6286 42.7002C89.9459 42.7002 89.4019 42.9135 88.9966 43.3402C88.6019 43.7562 88.4046 44.3588 88.4046 45.1482V50.0762H86.5806V38.2362H88.4046V42.2842C88.7139 41.9108 89.1033 41.6228 89.5726 41.4202C90.0526 41.2175 90.5753 41.1162 91.1406 41.1162ZM96.0432 45.6282C96.0432 44.7428 96.2245 43.9588 96.5872 43.2762C96.9605 42.5935 97.4619 42.0655 98.0912 41.6922C98.7312 41.3082 99.4352 41.1162 100.203 41.1162C100.897 41.1162 101.499 41.2548 102.011 41.5322C102.534 41.7988 102.95 42.1348 103.259 42.5402V41.2602H105.099V50.0762H103.259V48.7642C102.95 49.1802 102.529 49.5268 101.995 49.8042C101.462 50.0815 100.854 50.2202 100.171 50.2202C99.4139 50.2202 98.7205 50.0282 98.0912 49.6442C97.4619 49.2495 96.9605 48.7055 96.5872 48.0122C96.2245 47.3082 96.0432 46.5135 96.0432 45.6282ZM103.259 45.6602C103.259 45.0522 103.131 44.5242 102.875 44.0762C102.63 43.6282 102.305 43.2868 101.899 43.0522C101.494 42.8175 101.057 42.7002 100.587 42.7002C100.118 42.7002 99.6805 42.8175 99.2752 43.0522C98.8699 43.2762 98.5392 43.6122 98.2832 44.0602C98.0379 44.4975 97.9152 45.0202 97.9152 45.6282C97.9152 46.2362 98.0379 46.7695 98.2832 47.2282C98.5392 47.6868 98.8699 48.0388 99.2752 48.2842C99.6912 48.5188 100.129 48.6362 100.587 48.6362C101.057 48.6362 101.494 48.5188 101.899 48.2842C102.305 48.0495 102.63 47.7082 102.875 47.2602C103.131 46.8015 103.259 46.2682 103.259 45.6602ZM109.303 42.7482V47.6282C109.303 47.9588 109.378 48.1988 109.527 48.3482C109.687 48.4868 109.954 48.5562 110.327 48.5562H111.447V50.0762H110.007C109.186 50.0762 108.556 49.8842 108.119 49.5002C107.682 49.1162 107.463 48.4922 107.463 47.6282V42.7482H106.423V41.2602H107.463V39.0682H109.303V41.2602H111.447V42.7482H109.303ZM112.2 45.6282C112.2 44.7428 112.381 43.9588 112.744 43.2762C113.117 42.5935 113.619 42.0655 114.248 41.6922C114.888 41.3082 115.597 41.1162 116.376 41.1162C116.952 41.1162 117.517 41.2442 118.072 41.5002C118.637 41.7455 119.085 42.0762 119.416 42.4922V38.2362H121.256V50.0762H119.416V48.7482C119.117 49.1748 118.701 49.5268 118.168 49.8042C117.645 50.0815 117.043 50.2202 116.36 50.2202C115.592 50.2202 114.888 50.0282 114.248 49.6442C113.619 49.2495 113.117 48.7055 112.744 48.0122C112.381 47.3082 112.2 46.5135 112.2 45.6282ZM119.416 45.6602C119.416 45.0522 119.288 44.5242 119.032 44.0762C118.787 43.6282 118.461 43.2868 118.056 43.0522C117.651 42.8175 117.213 42.7002 116.744 42.7002C116.275 42.7002 115.837 42.8175 115.432 43.0522C115.027 43.2762 114.696 43.6122 114.44 44.0602C114.195 44.4975 114.072 45.0202 114.072 45.6282C114.072 46.2362 114.195 46.7695 114.44 47.2282C114.696 47.6868 115.027 48.0388 115.432 48.2842C115.848 48.5188 116.285 48.6362 116.744 48.6362C117.213 48.6362 117.651 48.5188 118.056 48.2842C118.461 48.0495 118.787 47.7082 119.032 47.2602C119.288 46.8015 119.416 46.2682 119.416 45.6602ZM122.724 45.6282C122.724 44.7428 122.905 43.9588 123.268 43.2762C123.641 42.5935 124.143 42.0655 124.772 41.6922C125.412 41.3082 126.116 41.1162 126.884 41.1162C127.577 41.1162 128.18 41.2548 128.692 41.5322C129.215 41.7988 129.631 42.1348 129.94 42.5402V41.2602H131.78V50.0762H129.94V48.7642C129.631 49.1802 129.209 49.5268 128.676 49.8042C128.143 50.0815 127.535 50.2202 126.852 50.2202C126.095 50.2202 125.401 50.0282 124.772 49.6442C124.143 49.2495 123.641 48.7055 123.268 48.0122C122.905 47.3082 122.724 46.5135 122.724 45.6282ZM129.94 45.6602C129.94 45.0522 129.812 44.5242 129.556 44.0762C129.311 43.6282 128.985 43.2868 128.58 43.0522C128.175 42.8175 127.737 42.7002 127.268 42.7002C126.799 42.7002 126.361 42.8175 125.956 43.0522C125.551 43.2762 125.22 43.6122 124.964 44.0602C124.719 44.4975 124.596 45.0202 124.596 45.6282C124.596 46.2362 124.719 46.7695 124.964 47.2282C125.22 47.6868 125.551 48.0388 125.956 48.2842C126.372 48.5188 126.809 48.6362 127.268 48.6362C127.737 48.6362 128.175 48.5188 128.58 48.2842C128.985 48.0495 129.311 47.7082 129.556 47.2602C129.812 46.8015 129.94 46.2682 129.94 45.6602ZM138.304 41.1162C138.997 41.1162 139.616 41.2602 140.16 41.5482C140.714 41.8362 141.146 42.2628 141.456 42.8282C141.765 43.3935 141.92 44.0762 141.92 44.8762V50.0762H140.112V45.1482C140.112 44.3588 139.914 43.7562 139.52 43.3402C139.125 42.9135 138.586 42.7002 137.904 42.7002C137.221 42.7002 136.677 42.9135 136.272 43.3402C135.877 43.7562 135.68 44.3588 135.68 45.1482V50.0762H133.856V41.2602H135.68V42.2682C135.978 41.9055 136.357 41.6228 136.816 41.4202C137.285 41.2175 137.781 41.1162 138.304 41.1162ZM151.586 50.2202C150.754 50.2202 150.002 50.0335 149.33 49.6602C148.658 49.2762 148.13 48.7428 147.746 48.0602C147.362 47.3668 147.17 46.5668 147.17 45.6602C147.17 44.7642 147.368 43.9695 147.762 43.2762C148.157 42.5828 148.696 42.0495 149.378 41.6762C150.061 41.3028 150.824 41.1162 151.666 41.1162C152.509 41.1162 153.272 41.3028 153.954 41.6762C154.637 42.0495 155.176 42.5828 155.57 43.2762C155.965 43.9695 156.162 44.7642 156.162 45.6602C156.162 46.5562 155.96 47.3508 155.554 48.0442C155.149 48.7375 154.594 49.2762 153.89 49.6602C153.197 50.0335 152.429 50.2202 151.586 50.2202ZM151.586 48.6362C152.056 48.6362 152.493 48.5242 152.898 48.3002C153.314 48.0762 153.65 47.7402 153.906 47.2922C154.162 46.8442 154.29 46.3002 154.29 45.6602C154.29 45.0202 154.168 44.4815 153.922 44.0442C153.677 43.5962 153.352 43.2602 152.946 43.0362C152.541 42.8122 152.104 42.7002 151.634 42.7002C151.165 42.7002 150.728 42.8122 150.322 43.0362C149.928 43.2602 149.613 43.5962 149.378 44.0442C149.144 44.4815 149.026 45.0202 149.026 45.6602C149.026 46.6095 149.266 47.3455 149.746 47.8682C150.237 48.3802 150.85 48.6362 151.586 48.6362ZM157.934 38.9562H159.918L158.238 42.7642H156.958L157.934 38.9562ZM163.329 42.7482V47.6282C163.329 47.9588 163.403 48.1988 163.553 48.3482C163.713 48.4868 163.979 48.5562 164.353 48.5562H165.473V50.0762H164.033C163.211 50.0762 162.582 49.8842 162.145 49.5002C161.707 49.1162 161.489 48.4922 161.489 47.6282V42.7482H160.449V41.2602H161.489V39.0682H163.329V41.2602H165.473V42.7482H163.329ZM167.762 40.0922C167.431 40.0922 167.154 39.9802 166.93 39.7562C166.706 39.5322 166.594 39.2548 166.594 38.9242C166.594 38.5935 166.706 38.3162 166.93 38.0922C167.154 37.8682 167.431 37.7562 167.762 37.7562C168.082 37.7562 168.354 37.8682 168.578 38.0922C168.802 38.3162 168.914 38.5935 168.914 38.9242C168.914 39.2548 168.802 39.5322 168.578 39.7562C168.354 39.9802 168.082 40.0922 167.762 40.0922ZM168.658 41.2602V50.0762H166.834V41.2602H168.658ZM173.932 50.2202C173.239 50.2202 172.615 50.0975 172.06 49.8522C171.516 49.5962 171.084 49.2548 170.764 48.8282C170.444 48.3908 170.274 47.9055 170.252 47.3722H172.14C172.172 47.7455 172.348 48.0602 172.668 48.3162C172.999 48.5615 173.41 48.6842 173.9 48.6842C174.412 48.6842 174.807 48.5882 175.084 48.3962C175.372 48.1935 175.516 47.9375 175.516 47.6282C175.516 47.2975 175.356 47.0522 175.036 46.8922C174.727 46.7322 174.231 46.5562 173.548 46.3642C172.887 46.1828 172.348 46.0068 171.932 45.8362C171.516 45.6655 171.154 45.4042 170.844 45.0522C170.546 44.7002 170.396 44.2362 170.396 43.6602C170.396 43.1908 170.535 42.7642 170.812 42.3802C171.09 41.9855 171.484 41.6762 171.996 41.4522C172.519 41.2282 173.116 41.1162 173.788 41.1162C174.791 41.1162 175.596 41.3722 176.204 41.8842C176.823 42.3855 177.154 43.0735 177.196 43.9482H175.372C175.34 43.5535 175.18 43.2388 174.892 43.0042C174.604 42.7695 174.215 42.6522 173.724 42.6522C173.244 42.6522 172.876 42.7428 172.62 42.9242C172.364 43.1055 172.236 43.3455 172.236 43.6442C172.236 43.8788 172.322 44.0762 172.492 44.2362C172.663 44.3962 172.871 44.5242 173.116 44.6202C173.362 44.7055 173.724 44.8175 174.204 44.9562C174.844 45.1268 175.367 45.3028 175.772 45.4842C176.188 45.6548 176.546 45.9108 176.844 46.2522C177.143 46.5935 177.298 47.0468 177.308 47.6122C177.308 48.1135 177.17 48.5615 176.892 48.9562C176.615 49.3508 176.22 49.6602 175.708 49.8842C175.207 50.1082 174.615 50.2202 173.932 50.2202ZM183.519 41.1162C184.191 41.1162 184.789 41.2602 185.311 41.5482C185.845 41.8362 186.261 42.2628 186.559 42.8282C186.869 43.3935 187.023 44.0762 187.023 44.8762V50.0762H185.215V45.1482C185.215 44.3588 185.018 43.7562 184.623 43.3402C184.229 42.9135 183.69 42.7002 183.007 42.7002C182.325 42.7002 181.781 42.9135 181.375 43.3402C180.981 43.7562 180.783 44.3588 180.783 45.1482V50.0762H178.959V38.2362H180.783V42.2842C181.093 41.9108 181.482 41.6228 181.951 41.4202C182.431 41.2175 182.954 41.1162 183.519 41.1162Z" fill="white"/>
<path d="M200.155 43.5762H199.655V44.5762H200.155V43.5762ZM248.155 44.0762L243.155 41.1894V46.9629L248.155 44.0762ZM200.155 44.5762H243.655V43.5762H200.155V44.5762Z" fill="white"/>
<path d="M292.354 44.9998C292.354 49.4914 288.548 53.9432 281.211 58.1113C273.918 62.2543 263.328 66.0041 250.194 69.1602C223.933 75.4704 187.625 79.379 147.5 79.379C107.375 79.379 71.0674 75.4704 44.8066 69.1602C31.6718 66.0041 21.0818 62.2543 13.7892 58.1113C6.45226 53.9432 2.64655 49.4914 2.64655 44.9998C2.64655 40.5083 6.45226 36.0565 13.7892 31.8883C21.0818 27.7453 31.6718 23.9956 44.8066 20.8394C71.0674 14.5292 107.375 10.6207 147.5 10.6207C187.625 10.6207 223.933 14.5292 250.194 20.8394C263.328 23.9956 273.918 27.7453 281.211 31.8883C288.548 36.0565 292.354 40.5083 292.354 44.9998Z" stroke="white" stroke-width="1.1261"/>
<path d="M292 55.0844C291.686 59.565 287.579 63.7407 279.969 67.3875C272.405 71.0122 261.579 74.0147 248.255 76.2479C221.618 80.7127 185.125 82.0816 145.098 79.2855C105.071 76.4894 69.124 70.0603 43.3677 61.9355C30.4852 57.8718 20.1828 53.3932 13.1972 48.7522C6.16919 44.0829 2.68359 39.3767 2.99723 34.8962C3.31086 30.4156 7.41818 26.2398 15.0283 22.5931C22.5925 18.9684 33.4186 15.9658 46.7418 13.7326C73.3794 9.26782 109.872 7.89894 149.899 10.695C189.926 13.4911 225.873 19.9203 251.629 28.045C264.512 32.1088 274.814 36.5873 281.8 41.2284C288.828 45.8977 292.314 50.6038 292 55.0844Z" stroke="white" stroke-width="1.1261"/>
</svg>
