<svg width="117" height="150" viewBox="0 0 117 150" fill="none" xmlns="http://www.w3.org/2000/svg">
<path d="M0 54.8492V122.372L68.8873 82.4724L68.883 21.0879L17.6632 50.7572L15.8934 45.64L0 54.8492Z" fill="#B09263"/>
<path opacity="0.7" d="M0 54.8492V122.372L68.8873 82.4724L68.883 21.0879L17.6632 50.7572L15.8934 45.64L0 54.8492Z" fill="black"/>
<path d="M0 122.372L3.5309 60.9872L72.4182 21.0879L68.8873 82.4724L0 122.372Z" fill="#E0E0E0"/>
<path d="M0 122.372L5.29635 62.0125L74.1837 22.1089L68.8873 82.4726L0 122.372Z" fill="#B09263"/>
<path opacity="0.7" d="M0 122.372L5.29635 62.0125L74.1837 22.1089L68.8873 82.4726L0 122.372Z" fill="black"/>
<path d="M10.5972 60.9874V128.514L79.4845 88.6106V27.2261L28.2604 56.8953L26.4949 51.7781L10.5972 60.9874Z" fill="#B09263"/>
<path opacity="0.5" d="M10.5972 60.9874V128.514L79.4845 88.6106V27.2261L28.2604 56.8953L26.4949 51.7781L10.5972 60.9874Z" fill="black"/>
<path d="M10.5972 128.514L14.1281 67.1254L83.0154 27.2261L79.4845 88.6106L10.5972 128.514Z" fill="#E0E0E0"/>
<path d="M10.5972 128.514L15.8935 68.1507L84.7808 28.2471L79.4845 88.6108L10.5972 128.514Z" fill="#B09263"/>
<path opacity="0.5" d="M10.5972 128.514L15.8935 68.1507L84.7808 28.2471L79.4845 88.6108L10.5972 128.514Z" fill="black"/>
<path d="M68.8698 150C56.5029 142.837 45.0319 135.05 39.7964 125.915L55.7115 116.697L68.8698 150Z" fill="#E0E0E0"/>
<path d="M22.9595 68.1509V135.673L91.8468 95.7742V34.3896L40.6227 64.0589L38.8572 58.9417L22.9595 68.1509Z" fill="#B09263"/>
<path opacity="0.2" d="M22.9595 68.1509V135.673L91.8468 95.7742V34.3896L40.6227 64.0589L38.8572 58.9417L22.9595 68.1509Z" fill="black"/>
<path d="M42.8055 88.1137C42.6316 88.1137 42.6055 87.9131 42.6055 87.7953V30.2105C42.6194 29.9871 42.6848 29.77 42.7965 29.5762C42.9081 29.3824 43.063 29.2173 43.249 29.0937L92.9686 0.301247C93.0367 0.25864 93.1146 0.23458 93.1947 0.231445C93.3687 0.231445 93.3948 0.432121 93.3948 0.549908V58.1347C93.3811 58.3588 93.3159 58.5766 93.2042 58.7712C93.0926 58.9657 92.9375 59.1316 92.7512 59.2559L43.0316 88.0483C42.9629 88.0888 42.8851 88.1113 42.8055 88.1137Z" fill="white"/>
<path d="M93.1688 0.431955C93.1724 0.463849 93.1724 0.496036 93.1688 0.52793V58.1128C93.1545 58.2985 93.0991 58.4787 93.0065 58.6402C92.914 58.8017 92.7867 58.9404 92.634 59.0463L42.9144 87.8387L42.8274 87.878C42.8216 87.8463 42.8216 87.8137 42.8274 87.782V30.1972C42.8424 30.0122 42.8981 29.8329 42.9906 29.6722C43.0831 29.5115 43.21 29.3734 43.3623 29.268L93.0819 0.475579C93.1093 0.456335 93.1404 0.442971 93.1732 0.436318L93.1688 0.431955ZM93.1993 6.96926e-05C93.0808 0.00360644 92.9654 0.0382015 92.8644 0.100408L43.1448 28.8928C42.9263 29.0369 42.7444 29.2303 42.6138 29.4575C42.4831 29.6848 42.4074 29.9396 42.3926 30.2016V87.7864C42.3926 88.1267 42.5622 88.323 42.8274 88.323C42.9459 88.3198 43.0615 88.2852 43.1622 88.2226L92.8818 59.4302C93.1014 59.2872 93.284 59.094 93.4148 58.8665C93.5455 58.6391 93.6207 58.3837 93.6341 58.1215V0.536657C93.6341 0.196383 93.4645 -0.00429279 93.1993 6.96926e-05Z" fill="#B09263"/>
<path opacity="0.7" d="M93.1688 0.431955C93.1724 0.463849 93.1724 0.496036 93.1688 0.52793V58.1128C93.1545 58.2985 93.0991 58.4787 93.0065 58.6402C92.914 58.8017 92.7867 58.9404 92.634 59.0463L42.9144 87.8387L42.8274 87.878C42.8216 87.8463 42.8216 87.8137 42.8274 87.782V30.1972C42.8424 30.0122 42.8981 29.8329 42.9906 29.6722C43.0831 29.5115 43.21 29.3734 43.3623 29.268L93.0819 0.475579C93.1093 0.456335 93.1404 0.442971 93.1732 0.436318L93.1688 0.431955ZM93.1993 6.96926e-05C93.0808 0.00360644 92.9654 0.0382015 92.8644 0.100408L43.1448 28.8928C42.9263 29.0369 42.7444 29.2303 42.6138 29.4575C42.4831 29.6848 42.4074 29.9396 42.3926 30.2016V87.7864C42.3926 88.1267 42.5622 88.323 42.8274 88.323C42.9459 88.3198 43.0615 88.2852 43.1622 88.2226L92.8818 59.4302C93.1014 59.2872 93.284 59.094 93.4148 58.8665C93.5455 58.6391 93.6207 58.3837 93.6341 58.1215V0.536657C93.6341 0.196383 93.4645 -0.00429279 93.1993 6.96926e-05Z" fill="white"/>
<path d="M47.6885 32.3956L65.3517 22.1655V42.6256L47.6885 52.8556V32.3956Z" fill="#B09263"/>
<path opacity="0.8" d="M47.6885 32.3956L65.3517 22.1655V42.6256L47.6885 52.8556V32.3956Z" fill="white"/>
<path d="M62.7039 27.2656V33.4167L62.1473 33.7265V31.8462C62.1473 30.808 61.308 30.4546 60.2644 31.0566L52.7808 35.3973C51.7415 35.9993 50.898 37.3299 50.898 38.3682V40.2484L50.3457 40.5799V34.4419L62.7039 27.2656Z" fill="white"/>
<path d="M59.303 42.9269C58.3986 43.4504 57.6637 42.9007 57.6637 41.6923V31.8462L55.3895 33.0851V43.0098C55.3895 44.2138 54.6546 45.6273 53.7501 46.1377L52.1064 47.0887V47.7431L60.938 42.6259V41.9759L59.303 42.9269Z" fill="white"/>
<path d="M68.8701 21.1582C68.8701 21.7253 69.3789 21.8867 70.0007 21.529L87.1856 11.5607C87.4905 11.3873 87.7512 11.1454 87.9474 10.854C88.1435 10.5627 88.2697 10.2297 88.3162 9.88113C88.3162 9.31837 87.8074 9.1526 87.1856 9.51468L70.0137 19.4612C69.7038 19.6342 69.4388 19.878 69.2401 20.1728C69.0415 20.4676 68.9147 20.8051 68.8701 21.1582Z" fill="#455A64"/>
<path d="M68.8701 27.2657C68.8701 27.8329 69.3789 27.9986 70.0007 27.6366L87.1725 17.6901C87.4774 17.5167 87.7382 17.2748 87.9343 16.9834C88.1305 16.692 88.2567 16.359 88.3031 16.0105C88.3031 15.4478 87.7943 15.282 87.1725 15.6441L70.0007 25.5905C69.6963 25.7635 69.4359 26.0047 69.2398 26.2953C69.0437 26.5859 68.9172 26.918 68.8701 27.2657Z" fill="#455A64"/>
<path d="M68.8701 33.4164C68.8701 33.9835 69.3789 34.1493 70.0007 33.7872L87.1725 23.8408C87.4769 23.6678 87.7373 23.4266 87.9334 23.136C88.1295 22.8454 88.2561 22.5133 88.3031 22.1656C88.3031 21.5984 87.7943 21.4327 87.1725 21.7948L70.0007 31.7412C69.6963 31.9142 69.4359 32.1554 69.2398 32.446C69.0437 32.7365 68.9172 33.0687 68.8701 33.4164Z" fill="#455A64"/>
<path d="M68.8701 39.5551C68.8701 40.1222 69.3789 40.288 70.0007 39.9259L87.1725 29.9794C87.4769 29.8065 87.7373 29.5653 87.9334 29.2747C88.1295 28.9841 88.2561 28.652 88.3031 28.3042C88.3031 27.7371 87.7943 27.5713 87.1725 27.9334L70.0007 37.8799C69.6963 38.0528 69.4359 38.294 69.2398 38.5846C69.0437 38.8752 68.9172 39.2073 68.8701 39.5551Z" fill="#455A64"/>
<path d="M47.6885 57.973C47.6885 58.5402 48.1929 58.7059 48.8191 58.3439L87.185 36.0952C87.4898 35.9228 87.7505 35.6817 87.9467 35.391C88.1429 35.1003 88.2692 34.7679 88.3156 34.42C88.3156 33.8529 87.8068 33.6914 87.185 34.0492L48.8191 56.2979C48.514 56.47 48.2531 56.711 48.0569 57.0017C47.8607 57.2925 47.7346 57.625 47.6885 57.973Z" fill="#455A64"/>
<path d="M47.6885 64.1111C47.6885 64.6782 48.1929 64.844 48.8191 64.4819L87.185 42.2594C87.4899 42.086 87.7506 41.8442 87.9468 41.5528C88.1429 41.2614 88.2692 40.9284 88.3156 40.5799C88.3156 40.0171 87.8068 39.8513 87.185 40.2134L48.8191 62.4359C48.514 62.6081 48.2531 62.8491 48.0569 63.1398C47.8607 63.4305 47.7346 63.7631 47.6885 64.1111Z" fill="#455A64"/>
<path d="M47.6885 70.2532C47.6885 70.8159 48.1929 70.9817 48.8191 70.6196L87.185 48.3971C87.4899 48.2237 87.7506 47.9819 87.9468 47.6905C88.1429 47.3991 88.2692 47.0661 88.3156 46.7176C88.3156 46.1548 87.8068 45.989 87.185 46.3511L48.8191 68.5736C48.5135 68.7462 48.2522 68.9879 48.056 69.2794C47.8597 69.5709 47.7339 69.9043 47.6885 70.2532Z" fill="#455A64"/>
<path d="M22.9595 135.673L35.322 81.452L104.209 41.5483L91.8468 95.774L22.9595 135.673Z" fill="#B09263"/>
<path d="M39.814 85.6965V125.914L55.7117 116.705V76.4917L39.814 85.6965Z" fill="#B09263"/>
<path opacity="0.2" d="M39.814 85.6965V125.914L55.7117 116.705V76.4917L39.814 85.6965Z" fill="black"/>
<path d="M68.9001 149.738C67.5477 148.726 54.5112 138.731 47.8843 124.435C40.8312 109.236 40.8398 91.5072 40.8398 84.837V84.6276L88.0982 57.2573C88.0982 63.9886 88.0982 81.744 95.1818 96.9952C101.657 110.955 114.193 120.823 116.18 122.333L68.9001 149.738Z" fill="white"/>
<path d="M87.8814 57.6506C87.8814 64.6655 88.0162 82.0806 94.9867 97.105C101.244 110.585 113.141 120.278 115.789 122.325L68.9137 149.477C67.083 148.094 54.5379 138.265 48.0849 124.362C41.0405 109.207 41.0405 91.5123 41.0405 84.8507V84.7679L87.864 57.6463L87.8814 57.6506ZM88.2989 56.8916L40.6056 84.5192C40.6056 90.7968 40.4752 109.036 47.6718 124.545C54.7553 139.766 68.8702 150 68.8702 150L116.576 122.368C116.576 122.368 102.444 112.134 95.3824 96.913C88.1814 81.4044 88.3162 63.1648 88.3162 56.8872L88.2989 56.8916Z" fill="#B09263"/>
<path opacity="0.7" d="M87.8814 57.6506C87.8814 64.6655 88.0162 82.0806 94.9867 97.105C101.244 110.585 113.141 120.278 115.789 122.325L68.9137 149.477C67.083 148.094 54.5379 138.265 48.0849 124.362C41.0405 109.207 41.0405 91.5123 41.0405 84.8507V84.7679L87.864 57.6463L87.8814 57.6506ZM88.2989 56.8916L40.6056 84.5192C40.6056 90.7968 40.4752 109.036 47.6718 124.545C54.7553 139.766 68.8702 150 68.8702 150L116.576 122.368C116.576 122.368 102.444 112.134 95.3824 96.913C88.1814 81.4044 88.3162 63.1648 88.3162 56.8872L88.2989 56.8916Z" fill="white"/>
<path d="M82.9197 66.1573L67.8395 74.8822C67.5376 75.0489 67.2803 75.2863 67.0895 75.5742C66.8987 75.862 66.7801 76.1919 66.7437 76.5356C66.7654 77.0897 67.2916 77.2467 67.9134 76.8846L82.998 68.1597C83.2962 67.9945 83.5509 67.7603 83.7407 67.4765C83.9306 67.1928 84.0501 66.8676 84.0894 66.5281C84.0633 65.9522 83.5459 65.7952 82.9197 66.1573Z" fill="#455A64"/>
<path d="M83.2409 72.1123L68.1607 80.8373C67.8624 80.9982 67.6096 81.2322 67.4256 81.5174C67.2416 81.8027 67.1325 82.13 67.1084 82.4689C67.1562 83.0054 67.7041 83.1494 68.3259 82.7873L83.4105 74.0624C83.7073 73.9021 83.9585 73.6686 84.1404 73.3839C84.3222 73.0992 84.4287 72.7726 84.4498 72.4351C84.4063 71.8942 83.8671 71.7633 83.2409 72.1123Z" fill="#455A64"/>
<path d="M83.8456 77.9009L68.761 86.6259C68.1392 86.9879 67.6869 87.7077 67.7608 88.2269C67.8348 88.746 68.4044 88.8813 69.0306 88.5192L84.1152 79.7942C84.737 79.4321 85.1805 78.7167 85.1022 78.1975C85.024 77.6784 84.4674 77.5388 83.8456 77.9009Z" fill="#455A64"/>
<path d="M84.7503 83.5153L69.6657 92.2403C69.0439 92.6023 68.6134 93.3091 68.7178 93.8151C68.8221 94.3212 69.4135 94.4346 70.0223 94.0725L85.1025 85.3475C85.7287 84.9855 86.1461 84.2831 86.0418 83.777C85.9374 83.271 85.3939 83.1532 84.7503 83.5153Z" fill="#455A64"/>
<path d="M85.9763 88.9423L70.8917 97.6673C70.2699 98.0294 69.8655 98.7186 70.022 99.2029C70.1786 99.6871 70.7743 99.7962 71.3961 99.4341L86.4807 90.7091C87.1069 90.347 87.4983 89.6621 87.3504 89.1735C87.2026 88.6849 86.5981 88.5802 85.9763 88.9423Z" fill="#455A64"/>
<path d="M87.568 94.1732L50.8067 115.466C50.1848 115.829 49.8065 116.5 49.9761 116.967C50.1457 117.434 50.7936 117.521 51.4154 117.159L88.1768 95.8658C88.803 95.5038 89.1639 94.8363 88.9943 94.3651C88.8247 93.894 88.1681 93.8111 87.568 94.1732Z" fill="#455A64"/>
<path d="M89.5029 99.1687L52.7459 120.462C52.1198 120.824 51.7762 121.478 51.985 121.923C52.1937 122.368 52.8546 122.438 53.4895 122.076L90.2509 100.783C90.877 100.421 91.2118 99.7664 91.0031 99.3214C90.7944 98.8764 90.1291 98.811 89.5029 99.1687Z" fill="#455A64"/>
<path d="M91.9159 103.928L55.1545 125.221C54.5283 125.583 54.2196 126.22 54.4675 126.643C54.7153 127.066 55.4241 127.11 56.0503 126.748L92.7856 105.454C93.4074 105.097 93.7074 104.464 93.4595 104.041C93.2117 103.618 92.5247 103.565 91.9159 103.928Z" fill="#455A64"/>
<path d="M94.73 108.43L57.973 129.719C57.3469 130.081 57.0686 130.705 57.3512 131.102C57.6339 131.499 58.3774 131.538 59.0036 131.172L95.7606 109.878C96.3868 109.516 96.6564 108.901 96.3737 108.5C96.0911 108.098 95.3562 108.068 94.73 108.43Z" fill="#455A64"/>
<path d="M97.9392 112.709L61.1779 133.998C60.556 134.36 60.3082 134.966 60.6213 135.346C60.9344 135.726 61.704 135.743 62.3302 135.381L99.0916 114.079C99.7134 113.717 99.9612 113.119 99.6395 112.74C99.3177 112.36 98.5654 112.334 97.9392 112.709Z" fill="#455A64"/>
<path d="M101.482 116.784L64.7341 138.073C64.1079 138.435 63.8644 139.028 64.2296 139.382C64.5949 139.735 65.3689 139.744 65.9908 139.382L102.752 118.088C103.378 117.726 103.596 117.142 103.248 116.779C102.9 116.417 102.117 116.426 101.482 116.784Z" fill="#455A64"/>
<path d="M105.396 120.679L68.635 141.968C68.0132 142.33 67.8088 142.911 68.2001 143.255C68.5915 143.6 69.3916 143.587 70.0178 143.225L106.749 121.931C107.371 121.569 107.566 121.002 107.184 120.653C106.801 120.304 106.005 120.317 105.396 120.679Z" fill="#455A64"/>
<path d="M62.3732 78.0625L45.0317 88.0962C45.2231 94.4 45.9406 103.491 48.567 112.648L65.9128 102.615C63.282 93.4577 62.5645 84.3619 62.3732 78.0625Z" fill="#B09263"/>
<path opacity="0.8" d="M62.3732 78.0625L45.0317 88.0962C45.2231 94.4 45.9406 103.491 48.567 112.648L65.9128 102.615C63.282 93.4577 62.5645 84.3619 62.3732 78.0625Z" fill="white"/>
<path d="M52.1022 86.7089C52.1256 86.302 52.0625 85.8947 51.9171 85.5142C51.7716 85.1336 51.5472 84.7884 51.2586 84.5015L45.0317 88.1049C45.0839 89.7713 45.1709 91.6341 45.3231 93.6409C46.1331 93.7343 46.9524 93.5824 47.6756 93.2046C50.1237 92.0791 52.1022 89.1606 52.1022 86.7089Z" fill="#B09263"/>
<path opacity="0.6" d="M52.1022 86.7089C52.1256 86.302 52.0625 85.8947 51.9171 85.5142C51.7716 85.1336 51.5472 84.7884 51.2586 84.5015L45.0317 88.1049C45.0839 89.7713 45.1709 91.6341 45.3231 93.6409C46.1331 93.7343 46.9524 93.5824 47.6756 93.2046C50.1237 92.0791 52.1022 89.1606 52.1022 86.7089Z" fill="white"/>
<path d="M64.4384 96.594C63.2817 95.1326 60.9293 90.6174 59.9248 88.6499C59.8853 88.5721 59.8235 88.508 59.7473 88.4659C59.6711 88.4237 59.5841 88.4055 59.4975 88.4135C59.4109 88.4214 59.3286 88.4553 59.2614 88.5107C59.1942 88.5661 59.145 88.6404 59.1203 88.7241C58.0336 92.4507 57.4028 96.2961 57.2418 100.176C55.7936 99.0222 54.5486 97.6331 53.5587 96.0661C53.5165 96.0054 53.4579 95.9581 53.3898 95.9297C53.3216 95.9013 53.2468 95.893 53.1742 95.9059C53.1015 95.9187 53.034 95.9521 52.9797 96.0021C52.9253 96.0522 52.8863 96.1168 52.8673 96.1883C50.9714 103.513 51.9237 110.72 51.9237 110.72L65.9125 102.614C65.3299 100.59 64.8472 98.5746 64.4384 96.594Z" fill="#B09263"/>
<path opacity="0.6" d="M64.4384 96.594C63.2817 95.1326 60.9293 90.6174 59.9248 88.6499C59.8853 88.5721 59.8235 88.508 59.7473 88.4659C59.6711 88.4237 59.5841 88.4055 59.4975 88.4135C59.4109 88.4214 59.3286 88.4553 59.2614 88.5107C59.1942 88.5661 59.145 88.6404 59.1203 88.7241C58.0336 92.4507 57.4028 96.2961 57.2418 100.176C55.7936 99.0222 54.5486 97.6331 53.5587 96.0661C53.5165 96.0054 53.4579 95.9581 53.3898 95.9297C53.3216 95.9013 53.2468 95.893 53.1742 95.9059C53.1015 95.9187 53.034 95.9521 52.9797 96.0021C52.9253 96.0522 52.8863 96.1168 52.8673 96.1883C50.9714 103.513 51.9237 110.72 51.9237 110.72L65.9125 102.614C65.3299 100.59 64.8472 98.5746 64.4384 96.594Z" fill="white"/>
</svg>
