<svg width="250" height="84" viewBox="0 0 225 64" fill="none" xmlns="http://www.w3.org/2000/svg">
<g clip-path="url(#clip0_133_4036)">
<path fill-rule="evenodd" clip-rule="evenodd" d="M15.5843 9.27258C12.0404 7.23999 7.78767 5.73892 5.48565 5.0957C5.38329 6.63103 5.27298 8.15275 5.16345 9.66371C4.33372 21.1095 3.54881 31.9372 6.60717 43.3738C9.55727 54.3696 15.3843 64.0245 28.5256 64.0001C41.667 64.0001 47.5184 54.3696 50.4441 43.3738C53.5025 31.9372 52.7176 21.1095 51.8878 9.6637C51.7783 8.15274 51.668 6.63102 51.5656 5.0957C48.3327 6.0228 41.2523 8.61868 37.6914 11.9794C36.9424 13.2253 36.7682 14.6001 37.449 16.1159C39.9293 21.6015 39.21 23.417 38.256 25.825C37.9253 26.6599 37.5663 27.5659 37.3027 28.7209C36.9994 30.0673 36.7634 31.3891 36.5307 32.6923C35.9966 35.6839 35.48 38.5776 34.2063 41.4477L33.9137 44.8854C34.9865 47.3967 33.7431 52.3216 32.0852 53.6138C31.1099 54.394 29.5983 54.7353 28.0867 54.7109C26.5751 54.7353 25.0635 54.3696 24.0882 53.6138C22.4303 52.2972 21.1869 47.3967 22.2596 44.8854L21.9915 41.4477C20.733 38.5907 20.21 35.6862 19.6695 32.6847C19.4351 31.383 19.1974 30.0631 18.8951 28.7209C18.6359 27.5578 18.2785 26.6472 17.9488 25.8075C17.007 23.4082 16.2926 21.5881 18.7488 16.1159C19.8587 13.6535 18.2924 11.3159 15.5843 9.27258Z" fill="white"/>
<path fill-rule="evenodd" clip-rule="evenodd" d="M28.5503 0C28.1846 3.43771 26.9411 9.24038 26.3072 12.995C25.6002 17.1642 23.1621 24.0884 28.087 24.5272C28.2333 24.5272 28.3552 24.5516 28.4771 24.5516H28.5259H28.5746C28.6965 24.5516 28.8428 24.5516 28.9647 24.5272C33.8897 24.0884 31.4516 17.1642 30.7445 12.995C30.135 9.24038 28.916 3.43771 28.5503 0Z" fill="url(#paint0_linear_133_4036)"/>
<path fill-rule="evenodd" clip-rule="evenodd" d="M70.4121 36.1572V19.5781H74.5569V36.1572C74.5569 37.5956 75.0689 38.8147 76.0685 39.8387C77.0925 40.8383 78.3115 41.3503 79.75 41.3503C81.1885 41.3503 82.4075 40.8383 83.4315 39.8387C84.4312 38.8147 84.9432 37.5956 84.9432 36.1572V19.5781H89.0879V36.1572C89.0879 38.7416 88.1858 40.9358 86.3573 42.7644C84.5287 44.593 82.3344 45.4951 79.75 45.4951C77.1656 45.4951 74.9714 44.593 73.1428 42.7644C71.3142 40.9358 70.4121 38.7416 70.4121 36.1572Z" fill="white"/>
<path fill-rule="evenodd" clip-rule="evenodd" d="M96.9143 28.7698V44.4468H92.7695V17.4814L107.276 35.2308V19.5538H111.421V46.5192L96.9143 28.7698Z" fill="white"/>
<path d="M120.881 19.5537H116.736V44.4467H120.881V19.5537Z" fill="white"/>
<path fill-rule="evenodd" clip-rule="evenodd" d="M138.679 22.674C136.119 22.674 133.925 23.5761 132.096 25.4047C130.268 27.2333 129.365 29.4275 129.365 32.0119C129.365 34.5963 130.268 36.7906 132.096 38.6192C133.925 40.4477 136.119 41.3498 138.703 41.3498C141.044 41.3498 143.068 40.6184 144.774 39.1068L147.724 42.0569C145.189 44.3487 142.19 45.4946 138.703 45.4946C134.973 45.4946 131.804 44.178 129.17 41.5449C126.537 38.9117 125.221 35.7422 125.221 32.0119C125.221 28.2816 126.537 25.1121 129.17 22.4546C131.804 19.8215 134.973 18.5049 138.679 18.5049H138.703C142.434 18.5049 145.603 19.8215 148.261 22.4546C148.431 22.6253 148.602 22.8203 148.748 22.991L145.823 25.9167C145.652 25.746 145.506 25.551 145.311 25.3803C143.482 23.5761 141.288 22.674 138.679 22.674Z" fill="white"/>
<path fill-rule="evenodd" clip-rule="evenodd" d="M162.987 45.4702C159.256 45.4702 156.087 44.1536 153.454 41.5205C150.82 38.8873 149.504 35.7178 149.504 31.9875C149.504 28.2573 150.82 25.0877 153.454 22.4546C156.087 19.8215 159.256 18.5049 162.987 18.5049C166.717 18.5049 169.886 19.8215 172.52 22.4546C175.153 25.0877 176.469 28.2573 176.469 31.9875C176.469 35.7178 175.153 38.8873 172.52 41.5205C169.911 44.178 166.717 45.4702 162.987 45.4702ZM162.987 41.3254C165.571 41.3254 167.765 40.4233 169.594 38.5948C171.422 36.7662 172.324 34.5719 172.324 31.9875C172.324 29.4032 171.422 27.2089 169.594 25.3803C167.765 23.5517 165.571 22.6496 162.987 22.6496C160.402 22.6496 158.208 23.5517 156.379 25.3803C154.551 27.2089 153.649 29.4032 153.649 31.9875C153.649 34.5719 154.551 36.7662 156.379 38.5948C158.208 40.4233 160.402 41.3254 162.987 41.3254Z" fill="white"/>
<path fill-rule="evenodd" clip-rule="evenodd" d="M188.075 38.2295H184.978V44.4467H180.833V19.5537H190.171C192.756 19.5537 194.95 20.4558 196.779 22.2844C198.607 24.113 199.509 26.3072 199.509 28.8916C199.509 31.476 198.607 33.6703 196.779 35.4989C195.633 36.6448 194.341 37.425 192.902 37.8638L199.509 44.4467H194.316L188.075 38.2295ZM184.978 23.6985V34.0604H190.171C191.61 34.0604 192.829 33.5484 193.853 32.5488C194.853 31.5248 195.365 30.3057 195.365 28.8672C195.365 27.4288 194.853 26.2097 193.853 25.2101C192.829 24.1861 191.61 23.6985 190.171 23.6985H184.978Z" fill="white"/>
<path fill-rule="evenodd" clip-rule="evenodd" d="M208.652 28.7698V44.4468H204.507V17.4814L219.014 35.2308V19.5538H223.183V46.5192L208.652 28.7698Z" fill="white"/>
<path fill-rule="evenodd" clip-rule="evenodd" d="M146.115 57.6365L146.091 58.2704H145.335V51.6875H146.14V53.8574C146.603 53.4185 147.237 53.1747 147.895 53.1747C149.382 53.1747 150.431 54.2963 150.431 55.7591C150.431 57.222 149.382 58.3435 147.895 58.3435C147.212 58.3679 146.578 58.0997 146.115 57.6365ZM153.283 57.7584L151.064 53.2723H151.967L153.722 56.8319L155.38 53.2723H156.258L153.795 58.5142C153.405 59.3431 152.991 59.8551 152.015 59.8551H151.406V59.0749H152.015C152.162 59.0749 152.332 59.0749 152.479 59.0018C152.747 58.8799 152.942 58.4898 153.088 58.2216L153.283 57.7584ZM160.329 55.9542V58.2704H159.525V51.9313H161.743C162.889 51.9313 163.84 52.7603 163.84 53.9305C163.84 55.1008 162.914 55.9542 161.743 55.9542H160.329ZM167.253 51.9313C169.082 51.9313 170.472 53.2479 170.472 55.1008C170.472 56.9538 169.106 58.2704 167.253 58.2704H165.279V51.9313H167.253ZM172.885 55.9542V58.2704H172.081V51.9313H174.3C175.445 51.9313 176.396 52.7603 176.396 53.9305C176.396 55.1008 175.47 55.9542 174.3 55.9542H172.885ZM183.223 56.5881H180.395L179.688 58.2704H178.81L181.492 51.9313H182.077L184.832 58.2704H183.954L183.223 56.5881ZM188.05 58.3679C186.588 58.3679 185.49 57.222 185.49 55.7835C185.49 54.3206 186.588 53.1991 188.05 53.1991C189.099 53.1991 190.025 53.7843 190.391 54.7839L190.537 55.1496H189.684L189.611 54.9789C189.343 54.345 188.733 54.0037 188.05 54.0037C187.026 54.0037 186.295 54.7839 186.295 55.7835C186.295 56.7831 187.026 57.5633 188.05 57.5633C188.757 57.5633 189.343 57.1976 189.611 56.5637L189.684 56.393H190.537L190.391 56.7587C190.025 57.7584 189.123 58.3679 188.05 58.3679ZM195.755 57.6608C195.292 58.1241 194.658 58.3679 193.975 58.3679C192.512 58.3679 191.415 57.222 191.415 55.7835C191.415 54.3206 192.488 53.1991 193.975 53.1991C194.658 53.1991 195.292 53.4429 195.755 53.9062L195.779 53.2966H196.535V58.2704H195.779L195.755 57.6608ZM202.362 57.6608C201.899 58.1241 201.265 58.3679 200.582 58.3679C199.119 58.3679 198.022 57.222 198.022 55.7835C198.022 54.3206 199.095 53.1991 200.582 53.1991C201.24 53.1991 201.874 53.4429 202.338 53.8574V51.6875H203.142V58.2704H202.386L202.362 57.6608ZM205.458 56.1248C205.605 56.9538 206.239 57.5633 207.141 57.5633C207.823 57.5633 208.36 57.222 208.677 56.6125L208.75 56.4662H209.628L209.432 56.8563C208.994 57.8071 208.189 58.3679 207.141 58.3679C205.678 58.3679 204.629 57.1976 204.629 55.7591C204.629 54.3206 205.678 53.1747 207.141 53.1747C208.579 53.1747 209.603 54.3206 209.603 55.7347C209.603 55.7835 209.603 55.8079 209.603 55.8566V56.1248H205.458ZM211.822 53.6624C212.188 53.3454 212.651 53.1747 213.163 53.1747C213.797 53.1747 214.309 53.4673 214.601 53.9549C214.967 53.4673 215.528 53.1747 216.186 53.1747C217.332 53.1747 217.966 54.1012 217.966 55.174V58.2704H217.161V55.2471C217.161 54.6132 216.869 53.9793 216.162 53.9793C215.357 53.9793 214.918 54.6376 214.918 55.3934V58.2704H214.114V55.2471C214.114 54.5888 213.845 53.9793 213.114 53.9793C212.309 53.9793 211.871 54.6376 211.871 55.4178V58.2704H211.066V53.2479H211.822V53.6624ZM221.111 57.7584L218.892 53.2723H219.794L221.55 56.8319L223.208 53.2723H224.085L221.647 58.5142C221.257 59.3431 220.843 59.8551 219.868 59.8551H219.234V59.0749H219.843C219.989 59.0749 220.16 59.0749 220.306 59.0018C220.575 58.8799 220.77 58.4898 220.916 58.2216L221.111 57.7584ZM147.871 57.5633C148.895 57.5633 149.626 56.7831 149.626 55.7835C149.626 54.7595 148.919 54.0037 147.871 54.0037C146.847 54.0037 146.115 54.7839 146.115 55.7835C146.115 56.7587 146.871 57.5633 147.871 57.5633ZM160.329 52.7359V55.1496H161.719C162.426 55.1496 163.011 54.662 163.011 53.9305C163.011 53.1991 162.426 52.7359 161.719 52.7359H160.329ZM166.083 52.7359V57.4658H167.253C168.643 57.4658 169.643 56.4905 169.643 55.1008C169.643 53.7111 168.619 52.7359 167.253 52.7359H166.083ZM172.885 52.7359V55.1496H174.275C174.982 55.1496 175.567 54.662 175.567 53.9305C175.567 53.1991 174.982 52.7359 174.275 52.7359H172.885ZM181.809 53.2966L180.76 55.7835H182.906L181.809 53.2966ZM193.975 57.5633C194.999 57.5633 195.73 56.7831 195.73 55.7835C195.73 54.7595 195.023 54.0037 193.975 54.0037C192.951 54.0037 192.22 54.7839 192.22 55.7835C192.22 56.7831 192.951 57.5633 193.975 57.5633ZM200.582 57.5633C201.606 57.5633 202.338 56.7831 202.338 55.7835C202.338 54.7595 201.631 54.0037 200.582 54.0037C199.558 54.0037 198.827 54.7839 198.827 55.7835C198.851 56.7831 199.583 57.5633 200.582 57.5633ZM205.483 55.3203H208.774C208.604 54.5401 207.994 53.9793 207.141 53.9793C206.287 53.9793 205.653 54.5401 205.483 55.3203Z" fill="#272329" fill-opacity="0.08"/>
<path fill-rule="evenodd" clip-rule="evenodd" d="M147.895 53.4433C146.993 53.4433 146.237 53.9309 145.871 54.6623V51.9561H145.603V58.0025H145.822L145.871 56.8566C146.237 57.6124 146.993 58.1001 147.895 58.1001C149.236 58.1001 150.162 57.1004 150.162 55.7839C150.162 54.4429 149.211 53.4433 147.895 53.4433ZM147.87 57.8319C146.725 57.8319 145.847 56.9298 145.847 55.7595C145.847 54.5892 146.725 53.6871 147.87 53.6871C149.041 53.6871 149.894 54.5648 149.894 55.7595C149.894 56.9541 149.041 57.8319 147.87 57.8319ZM155.55 53.5408L153.722 57.4661L151.796 53.5408H151.503L153.6 57.7587L153.332 58.3195C152.942 59.1484 152.649 59.3435 152.015 59.3435H151.674V59.5873H152.015C152.722 59.5873 153.112 59.3191 153.551 58.3926L155.819 53.5408H155.55ZM161.743 52.1999H159.793V58.0025H160.061V55.6863H161.743C162.792 55.6863 163.572 54.9305 163.572 53.9309C163.572 52.9557 162.767 52.1999 161.743 52.1999ZM161.743 55.4181H160.061V52.4681H161.743C162.645 52.4681 163.304 53.102 163.304 53.9309C163.279 54.7842 162.621 55.4181 161.743 55.4181ZM167.253 52.1999H165.547V58.0025H167.253C168.96 58.0025 170.203 56.7835 170.203 55.1012C170.203 53.4189 168.96 52.1999 167.253 52.1999ZM167.253 57.7343H165.815V52.4437H167.253C168.814 52.4437 169.935 53.5408 169.935 55.0768C169.935 56.6372 168.789 57.7343 167.253 57.7343ZM174.299 52.1999H172.349V58.0025H172.617V55.6863H174.299C175.348 55.6863 176.128 54.9305 176.128 53.9309C176.104 52.9557 175.323 52.1999 174.299 52.1999ZM174.275 55.4181H172.617V52.4681H174.299C175.202 52.4681 175.86 53.102 175.86 53.9309C175.835 54.7842 175.177 55.4181 174.275 55.4181ZM184.149 58.0025H184.442L181.931 52.1999H181.687L179.224 58.0025H179.517L180.224 56.3202H183.418L184.149 58.0025ZM181.809 52.6143L183.32 56.0764H180.346L181.809 52.6143ZM188.05 58.0757C189.025 58.0757 189.806 57.5393 190.147 56.6616H189.879C189.537 57.393 188.879 57.8319 188.05 57.8319C186.904 57.8319 186.027 56.9298 186.027 55.7595C186.027 54.5892 186.904 53.6871 188.05 53.6871C188.879 53.6871 189.537 54.126 189.854 54.833H190.123C189.806 53.9797 189.025 53.4189 188.05 53.4189C186.758 53.4189 185.758 54.4185 185.758 55.7351C185.758 57.0761 186.758 58.0757 188.05 58.0757ZM196.047 53.5408L196.023 54.7111C195.657 53.9553 194.926 53.4677 193.975 53.4677C192.683 53.4677 191.707 54.4673 191.707 55.7839C191.707 57.1004 192.683 58.1001 193.975 58.1001C194.901 58.1001 195.657 57.6124 196.023 56.8566L196.047 58.0269H196.267V53.5652H196.047V53.5408ZM193.975 57.8319C192.829 57.8319 191.951 56.9541 191.951 55.7595C191.951 54.5892 192.829 53.6871 193.975 53.6871C195.145 53.6871 195.998 54.5648 195.998 55.7595C195.998 56.9541 195.145 57.8319 193.975 57.8319ZM202.606 51.9561V54.6623C202.24 53.9309 201.509 53.4433 200.582 53.4433C199.265 53.4433 198.315 54.4429 198.315 55.7595C198.315 57.0761 199.29 58.0757 200.582 58.0757C201.509 58.0757 202.24 57.5881 202.606 56.8566L202.654 58.0025H202.874V51.9561H202.606ZM200.582 57.8319C199.436 57.8319 198.558 56.9541 198.558 55.7595C198.558 54.5892 199.436 53.6871 200.582 53.6871C201.752 53.6871 202.606 54.5648 202.606 55.7595C202.606 56.9541 201.752 57.8319 200.582 57.8319ZM209.335 55.7351C209.335 54.4429 208.433 53.4433 207.141 53.4433C205.873 53.4433 204.897 54.4429 204.897 55.7595C204.897 57.0761 205.873 58.0757 207.141 58.0757C208.067 58.0757 208.774 57.5881 209.189 56.7103H208.896C208.53 57.393 207.921 57.8075 207.116 57.8075C206.019 57.8075 205.166 56.9785 205.141 55.8326H209.31C209.335 55.8082 209.335 55.7595 209.335 55.7351ZM207.141 53.6871C208.189 53.6871 209.018 54.4429 209.067 55.5888H205.166C205.239 54.4917 206.068 53.6871 207.141 53.6871ZM216.21 53.4433C215.454 53.4433 214.845 53.8821 214.601 54.5892C214.406 53.8821 213.894 53.4433 213.187 53.4433C212.48 53.4433 211.895 53.809 211.627 54.4429L211.578 53.5408H211.358V58.0025H211.627V55.3938C211.627 54.3941 212.261 53.6871 213.138 53.6871C213.918 53.6871 214.406 54.2966 214.406 55.2475V58.0025H214.674V55.3938C214.674 54.3941 215.308 53.6871 216.186 53.6871C216.966 53.6871 217.454 54.2966 217.454 55.2475V58.0025H217.722V55.1743C217.697 54.1503 217.112 53.4433 216.21 53.4433ZM223.378 53.5408L221.55 57.4661L219.624 53.5408H219.331L221.428 57.7587L221.16 58.3195C220.769 59.1484 220.477 59.3435 219.843 59.3435H219.502V59.5873H219.843C220.55 59.5873 220.94 59.3191 221.379 58.3926L223.646 53.5408H223.378Z" fill="#272329" fill-opacity="0.08"/>
</g>
<defs>
<linearGradient id="paint0_linear_133_4036" x1="28.5383" y1="0" x2="28.5383" y2="24.5501" gradientUnits="userSpaceOnUse">
<stop stop-color="#EDD999"/>
<stop offset="1" stop-color="#B09263"/>
</linearGradient>
<clipPath id="clip0_133_4036">
<rect width="224.085" height="64" fill="white"/>
</clipPath>
</defs>
</svg>
