<svg width="32" height="32" viewBox="0 0 32 32" fill="none" xmlns="http://www.w3.org/2000/svg">
<path fill-rule="evenodd" clip-rule="evenodd" d="M16 0C7.16344 0 0 7.16344 0 16C0 24.8366 7.16344 32 16 32C24.8366 32 32 24.8366 32 16C32 7.16344 24.8366 0 16 0ZM12.4822 7.51822C13.3924 7.4768 13.6833 7.46667 16.0008 7.46667H15.9981C18.3164 7.46667 18.6062 7.4768 19.5164 7.51822C20.4248 7.55982 21.0453 7.70365 21.5893 7.91467C22.1511 8.13245 22.6258 8.42401 23.1004 8.89868C23.5751 9.373 23.8667 9.84909 24.0853 10.4103C24.2951 10.9529 24.4391 11.573 24.4818 12.4815C24.5227 13.3917 24.5333 13.6826 24.5333 16.0001C24.5333 18.3176 24.5227 18.6078 24.4818 19.518C24.4391 20.4261 24.2951 21.0464 24.0853 21.5891C23.8667 22.1502 23.5751 22.6263 23.1004 23.1006C22.6263 23.5753 22.1509 23.8675 21.5898 24.0855C21.0469 24.2965 20.4261 24.4403 19.5176 24.482C18.6074 24.5234 18.3174 24.5335 15.9997 24.5335C13.6824 24.5335 13.3917 24.5234 12.4815 24.482C11.5732 24.4403 10.9529 24.2965 10.41 24.0855C9.84909 23.8675 9.373 23.5753 8.89886 23.1006C8.42437 22.6263 8.13281 22.1502 7.91467 21.5889C7.70382 21.0464 7.56 20.4263 7.51822 19.5178C7.47698 18.6076 7.46667 18.3176 7.46667 16.0001C7.46667 13.6826 7.47733 13.3915 7.51804 12.4813C7.55893 11.5732 7.70294 10.9529 7.91449 10.4102C8.13316 9.84909 8.42472 9.373 8.89939 8.89868C9.37371 8.42419 9.8498 8.13263 10.4111 7.91467C10.9536 7.70365 11.5737 7.55982 12.4822 7.51822Z" fill="white"/>
<path fill-rule="evenodd" clip-rule="evenodd" d="M15.2355 9.00409C15.3841 9.00385 15.544 9.00393 15.7166 9.004L16.001 9.00409C18.2794 9.00409 18.5495 9.01226 19.4492 9.05315C20.2812 9.0912 20.7328 9.23022 21.0336 9.34702C21.4318 9.50169 21.7157 9.68658 22.0142 9.98525C22.3129 10.2839 22.4978 10.5684 22.6528 10.9666C22.7696 11.267 22.9088 11.7186 22.9467 12.5506C22.9876 13.4502 22.9964 13.7204 22.9964 15.9978C22.9964 18.2751 22.9876 18.5453 22.9467 19.4449C22.9086 20.2769 22.7696 20.7285 22.6528 21.0289C22.4981 21.4271 22.3129 21.7107 22.0142 22.0092C21.7155 22.3079 21.432 22.4928 21.0336 22.6474C20.7331 22.7648 20.2812 22.9034 19.4492 22.9415C18.5496 22.9824 18.2794 22.9913 16.001 22.9913C13.7224 22.9913 13.4524 22.9824 12.5528 22.9415C11.7208 22.9031 11.2692 22.7641 10.9682 22.6473C10.57 22.4926 10.2856 22.3077 9.98689 22.009C9.68822 21.7104 9.50333 21.4266 9.34831 21.0282C9.23151 20.7278 9.09231 20.2762 9.05444 19.4442C9.01355 18.5446 9.00537 18.2744 9.00537 15.9956C9.00537 13.7168 9.01355 13.448 9.05444 12.5485C9.09248 11.7165 9.23151 11.2649 9.34831 10.9641C9.50298 10.5659 9.68822 10.2814 9.98689 9.98276C10.2856 9.68409 10.57 9.4992 10.9682 9.34418C11.269 9.22684 11.7208 9.08818 12.5528 9.04995C13.34 9.0144 13.6451 9.00373 15.2355 9.00195V9.00409ZM20.5561 10.421C19.9907 10.421 19.5321 10.8791 19.5321 11.4446C19.5321 12.01 19.9907 12.4687 20.5561 12.4687C21.1214 12.4687 21.5801 12.01 21.5801 11.4446C21.5801 10.8793 21.1214 10.4206 20.5561 10.4206V10.421ZM11.6187 15.9997C11.6187 13.5797 13.5808 11.6175 16.0008 11.6174C18.4209 11.6174 20.3826 13.5796 20.3826 15.9997C20.3826 18.4198 18.4211 20.3811 16.001 20.3811C13.5809 20.3811 11.6187 18.4198 11.6187 15.9997Z" fill="white"/>
<path d="M16.0007 13.1553C17.5716 13.1553 18.8452 14.4287 18.8452 15.9997C18.8452 17.5706 17.5716 18.8442 16.0007 18.8442C14.4297 18.8442 13.1562 17.5706 13.1562 15.9997C13.1562 14.4287 14.4297 13.1553 16.0007 13.1553Z" fill="white"/>
</svg>
