<svg width="135" height="40" viewBox="0 0 135 40" fill="none" xmlns="http://www.w3.org/2000/svg">
<g clip-path="url(#clip0_169_15610)">
<path fill-rule="evenodd" clip-rule="evenodd" d="M9.38505 5.79524C7.25091 4.52487 4.68983 3.5867 3.30352 3.18469C3.24188 4.14427 3.17545 5.09535 3.10949 6.0397C2.60982 13.1933 2.13713 19.9607 3.97892 27.1085C5.7555 33.9809 9.26463 40.0152 17.1785 39.9999C25.0924 39.9999 28.6162 33.9809 30.3781 27.1085C32.2199 19.9607 31.7472 13.1933 31.2476 6.03971C31.1816 5.09536 31.1152 4.14427 31.0535 3.18469C29.1066 3.76413 24.8427 5.38655 22.6983 7.487C22.2472 8.26571 22.1423 9.12493 22.5523 10.0723C24.0459 13.5008 23.6128 14.6355 23.0383 16.1405C22.8391 16.6623 22.6229 17.2286 22.4642 17.9504C22.2815 18.792 22.1394 19.6181 21.9993 20.4326C21.6777 22.3023 21.3665 24.1109 20.5995 25.9047L20.4233 28.0533C21.0693 29.6228 20.3205 32.7009 19.3221 33.5085C18.7348 33.9961 17.8245 34.2095 16.9142 34.1942C16.0039 34.2095 15.0935 33.9809 14.5062 33.5085C13.5078 32.6857 12.759 29.6228 13.4051 28.0533L13.2435 25.9047C12.4857 24.1191 12.1707 22.3038 11.8452 20.4278C11.7041 19.6143 11.561 18.7893 11.3789 17.9504C11.2228 17.2235 11.0075 16.6544 10.809 16.1295C10.2419 14.63 9.81161 13.4925 11.2908 10.0723C11.9592 8.5333 11.0159 7.07234 9.38505 5.79524Z" fill="white"/>
<path fill-rule="evenodd" clip-rule="evenodd" d="M17.193 0C16.9728 2.14857 16.224 5.77524 15.8422 8.12191C15.4164 10.7276 13.9482 15.0552 16.9141 15.3295C17.0021 15.3295 17.0756 15.3448 17.149 15.3448H17.1783H17.2077C17.2811 15.3448 17.3692 15.3448 17.4426 15.3295C20.4085 15.0552 18.9402 10.7276 18.5144 8.12191C18.1474 5.77524 17.4133 2.14857 17.193 0Z" fill="url(#paint0_linear_169_15610)"/>
<path fill-rule="evenodd" clip-rule="evenodd" d="M42.4033 22.5981V12.2362H44.8994V22.5981C44.8994 23.4972 45.2077 24.2591 45.8097 24.8991C46.4263 25.5238 47.1605 25.8438 48.0267 25.8438C48.893 25.8438 49.6271 25.5238 50.2438 24.8991C50.8458 24.2591 51.1541 23.4972 51.1541 22.5981V12.2362H53.6501V22.5981C53.6501 24.2133 53.1069 25.5848 52.0057 26.7276C50.9045 27.8705 49.5831 28.4343 48.0267 28.4343C46.4704 28.4343 45.149 27.8705 44.0478 26.7276C42.9466 25.5848 42.4033 24.2133 42.4033 22.5981Z" fill="white"/>
<path fill-rule="evenodd" clip-rule="evenodd" d="M58.3632 17.9809V27.779H55.8672V10.9257L64.6033 22.019V12.2209H67.0993V29.0742L58.3632 17.9809Z" fill="white"/>
<path d="M72.7958 12.2209H70.2998V27.779H72.7958V12.2209Z" fill="white"/>
<path fill-rule="evenodd" clip-rule="evenodd" d="M83.5144 14.1714C81.9728 14.1714 80.6513 14.7352 79.5501 15.8781C78.449 17.0209 77.9057 18.3923 77.9057 20.0076C77.9057 21.6228 78.449 22.9942 79.5501 24.1371C80.6513 25.28 81.9728 25.8438 83.5291 25.8438C84.9386 25.8438 86.1573 25.3866 87.1851 24.4419L88.9617 26.2857C87.4347 27.7181 85.6287 28.4342 83.5291 28.4342C81.2827 28.4342 79.374 27.6114 77.7882 25.9657C76.2025 24.32 75.4097 22.339 75.4097 20.0076C75.4097 17.6762 76.2025 15.6952 77.7882 14.0342C79.374 12.3885 81.2827 11.5657 83.5144 11.5657H83.5291C85.7756 11.5657 87.6843 12.3885 89.2847 14.0342C89.3875 14.1409 89.4902 14.2628 89.5783 14.3695L87.8164 16.1981C87.7136 16.0914 87.6255 15.9695 87.5081 15.8628C86.4069 14.7352 85.0855 14.1714 83.5144 14.1714Z" fill="white"/>
<path fill-rule="evenodd" clip-rule="evenodd" d="M98.1526 28.419C95.9062 28.419 93.9975 27.5961 92.4118 25.9504C90.8261 24.3047 90.0332 22.3238 90.0332 19.9923C90.0332 17.6609 90.8261 15.68 92.4118 14.0342C93.9975 12.3885 95.9062 11.5657 98.1526 11.5657C100.399 11.5657 102.308 12.3885 103.894 14.0342C105.479 15.68 106.272 17.6609 106.272 19.9923C106.272 22.3238 105.479 24.3047 103.894 25.9504C102.322 27.6114 100.399 28.419 98.1526 28.419ZM98.1526 25.8285C99.709 25.8285 101.03 25.2647 102.132 24.1219C103.233 22.979 103.776 21.6076 103.776 19.9923C103.776 18.3771 103.233 17.0057 102.132 15.8628C101.03 14.72 99.709 14.1561 98.1526 14.1561C96.5963 14.1561 95.2749 14.72 94.1737 15.8628C93.0725 17.0057 92.5292 18.3771 92.5292 19.9923C92.5292 21.6076 93.0725 22.979 94.1737 24.1219C95.2749 25.2647 96.5963 25.8285 98.1526 25.8285Z" fill="white"/>
<path fill-rule="evenodd" clip-rule="evenodd" d="M113.261 23.8933H111.396V27.779H108.9V12.2209H114.524C116.08 12.2209 117.402 12.7848 118.503 13.9276C119.604 15.0705 120.147 16.4419 120.147 18.0571C120.147 19.6724 119.604 21.0438 118.503 22.1867C117.813 22.9029 117.035 23.3905 116.168 23.6648L120.147 27.779H117.02L113.261 23.8933ZM111.396 14.8114V21.2876H114.524C115.39 21.2876 116.124 20.9676 116.741 20.3429C117.343 19.7029 117.651 18.941 117.651 18.0419C117.651 17.1429 117.343 16.3809 116.741 15.7562C116.124 15.1162 115.39 14.8114 114.524 14.8114H111.396Z" fill="white"/>
<path fill-rule="evenodd" clip-rule="evenodd" d="M125.653 17.9809V27.779H123.157V10.9257L131.893 22.019V12.2209H134.404V29.0742L125.653 17.9809Z" fill="white"/>
<path fill-rule="evenodd" clip-rule="evenodd" d="M87.9923 36.0229L87.9776 36.4191H87.5225V32.3048H88.007V33.661C88.286 33.3867 88.6677 33.2343 89.0641 33.2343C89.9598 33.2343 90.5911 33.9353 90.5911 34.8496C90.5911 35.7639 89.9598 36.4648 89.0641 36.4648C88.653 36.48 88.2713 36.3124 87.9923 36.0229ZM92.309 36.0991L90.9729 33.2953H91.5161L92.5733 35.52L93.5717 33.2953H94.1002L92.6173 36.5715C92.3824 37.0896 92.1328 37.4096 91.5455 37.4096H91.1784V36.922H91.5455C91.6336 36.922 91.7364 36.922 91.8245 36.8762C91.986 36.8 92.1034 36.5562 92.1915 36.3886L92.309 36.0991ZM96.5522 34.9715V36.4191H96.0677V32.4572H97.4038C98.0939 32.4572 98.6665 32.9753 98.6665 33.7067C98.6665 34.4381 98.1086 34.9715 97.4038 34.9715H96.5522ZM100.722 32.4572C101.823 32.4572 102.66 33.28 102.66 34.4381C102.66 35.5962 101.838 36.4191 100.722 36.4191H99.5328V32.4572H100.722ZM104.114 34.9715V36.4191H103.629V32.4572H104.965C105.655 32.4572 106.228 32.9753 106.228 33.7067C106.228 34.4381 105.67 34.9715 104.965 34.9715H104.114ZM110.339 35.3677H108.636L108.21 36.4191H107.682L109.297 32.4572H109.649L111.308 36.4191H110.78L110.339 35.3677ZM113.246 36.48C112.365 36.48 111.705 35.7639 111.705 34.8648C111.705 33.9505 112.365 33.2496 113.246 33.2496C113.878 33.2496 114.436 33.6153 114.656 34.24L114.744 34.4686H114.23L114.186 34.362C114.024 33.9658 113.657 33.7524 113.246 33.7524C112.63 33.7524 112.189 34.24 112.189 34.8648C112.189 35.4896 112.63 35.9772 113.246 35.9772C113.672 35.9772 114.024 35.7486 114.186 35.3524L114.23 35.2458H114.744L114.656 35.4743C114.436 36.0991 113.892 36.48 113.246 36.48ZM117.886 36.0381C117.607 36.3277 117.225 36.48 116.814 36.48C115.933 36.48 115.272 35.7639 115.272 34.8648C115.272 33.9505 115.918 33.2496 116.814 33.2496C117.225 33.2496 117.607 33.402 117.886 33.6915L117.901 33.3105H118.356V36.4191H117.901L117.886 36.0381ZM121.865 36.0381C121.586 36.3277 121.204 36.48 120.793 36.48C119.912 36.48 119.251 35.7639 119.251 34.8648C119.251 33.9505 119.897 33.2496 120.793 33.2496C121.19 33.2496 121.571 33.402 121.85 33.661V32.3048H122.335V36.4191H121.88L121.865 36.0381ZM123.73 35.0781C123.818 35.5962 124.199 35.9772 124.743 35.9772C125.154 35.9772 125.477 35.7639 125.668 35.3829L125.712 35.2915H126.24L126.123 35.5353C125.859 36.1296 125.374 36.48 124.743 36.48C123.862 36.48 123.23 35.7486 123.23 34.8496C123.23 33.9505 123.862 33.2343 124.743 33.2343C125.609 33.2343 126.226 33.9505 126.226 34.8343C126.226 34.8648 126.226 34.88 126.226 34.9105V35.0781H123.73ZM127.562 33.5391C127.782 33.341 128.061 33.2343 128.369 33.2343C128.751 33.2343 129.059 33.4172 129.236 33.722C129.456 33.4172 129.793 33.2343 130.19 33.2343C130.88 33.2343 131.262 33.8134 131.262 34.4839V36.4191H130.777V34.5296C130.777 34.1334 130.601 33.7372 130.175 33.7372C129.691 33.7372 129.426 34.1486 129.426 34.621V36.4191H128.942V34.5296C128.942 34.1181 128.78 33.7372 128.34 33.7372C127.855 33.7372 127.591 34.1486 127.591 34.6362V36.4191H127.107V33.28H127.562V33.5391ZM133.156 36.0991L131.82 33.2953H132.363L133.42 35.52L134.418 33.2953H134.947L133.479 36.5715C133.244 37.0896 132.994 37.4096 132.407 37.4096H132.025V36.922H132.392C132.48 36.922 132.583 36.922 132.671 36.8762C132.833 36.8 132.95 36.5562 133.038 36.3886L133.156 36.0991ZM89.0494 35.9772C89.6661 35.9772 90.1066 35.4896 90.1066 34.8648C90.1066 34.2248 89.6808 33.7524 89.0494 33.7524C88.4328 33.7524 87.9923 34.24 87.9923 34.8648C87.9923 35.4743 88.4475 35.9772 89.0494 35.9772ZM96.5522 32.96V34.4686H97.3891C97.8149 34.4686 98.1673 34.1639 98.1673 33.7067C98.1673 33.2496 97.8149 32.96 97.3891 32.96H96.5522ZM100.017 32.96V35.9162H100.722C101.559 35.9162 102.161 35.3067 102.161 34.4381C102.161 33.5696 101.544 32.96 100.722 32.96H100.017ZM104.114 32.96V34.4686H104.951C105.376 34.4686 105.729 34.1639 105.729 33.7067C105.729 33.2496 105.376 32.96 104.951 32.96H104.114ZM109.488 33.3105L108.856 34.8648H110.148L109.488 33.3105ZM116.814 35.9772C117.431 35.9772 117.871 35.4896 117.871 34.8648C117.871 34.2248 117.445 33.7524 116.814 33.7524C116.197 33.7524 115.757 34.24 115.757 34.8648C115.757 35.4896 116.197 35.9772 116.814 35.9772ZM120.793 35.9772C121.41 35.9772 121.85 35.4896 121.85 34.8648C121.85 34.2248 121.424 33.7524 120.793 33.7524C120.176 33.7524 119.736 34.24 119.736 34.8648C119.751 35.4896 120.191 35.9772 120.793 35.9772ZM123.744 34.5753H125.726C125.624 34.0877 125.257 33.7372 124.743 33.7372C124.229 33.7372 123.847 34.0877 123.744 34.5753Z" fill="white"/>
<path fill-rule="evenodd" clip-rule="evenodd" d="M89.0642 33.4019C88.521 33.4019 88.0658 33.7067 87.8456 34.1638V32.4724H87.6841V36.2515H87.8162L87.8456 35.5353C88.0658 36.0076 88.521 36.3124 89.0642 36.3124C89.8718 36.3124 90.4297 35.6877 90.4297 34.8648C90.4297 34.0267 89.8571 33.4019 89.0642 33.4019ZM89.0496 36.1448C88.3595 36.1448 87.8309 35.581 87.8309 34.8496C87.8309 34.1181 88.3595 33.5543 89.0496 33.5543C89.7543 33.5543 90.2682 34.1029 90.2682 34.8496C90.2682 35.5962 89.7543 36.1448 89.0496 36.1448ZM93.6746 33.4629L92.5734 35.9162L91.4134 33.4629H91.2373L92.5 36.0991L92.3384 36.4496C92.1035 36.9677 91.9273 37.0896 91.5456 37.0896H91.34V37.2419H91.5456C91.9714 37.2419 92.2063 37.0743 92.4706 36.4953L93.8361 33.4629H93.6746ZM97.4039 32.6248H96.2293V36.2515H96.3908V34.8038H97.4039C98.0353 34.8038 98.5051 34.3315 98.5051 33.7067C98.5051 33.0972 98.0206 32.6248 97.4039 32.6248ZM97.4039 34.6362H96.3908V32.7924H97.4039C97.9472 32.7924 98.3436 33.1886 98.3436 33.7067C98.3289 34.24 97.9325 34.6362 97.4039 34.6362ZM100.722 32.6248H99.6944V36.2515H100.722C101.75 36.2515 102.499 35.4896 102.499 34.4381C102.499 33.3867 101.75 32.6248 100.722 32.6248ZM100.722 36.0838H99.8559V32.7772H100.722C101.662 32.7772 102.337 33.4629 102.337 34.4229C102.337 35.3981 101.647 36.0838 100.722 36.0838ZM104.965 32.6248H103.791V36.2515H103.952V34.8038H104.965C105.597 34.8038 106.067 34.3315 106.067 33.7067C106.052 33.0972 105.582 32.6248 104.965 32.6248ZM104.951 34.6362H103.952V32.7924H104.965C105.509 32.7924 105.905 33.1886 105.905 33.7067C105.89 34.24 105.494 34.6362 104.951 34.6362ZM110.897 36.2515H111.073L109.561 32.6248H109.414L107.931 36.2515H108.107L108.533 35.2H110.457L110.897 36.2515ZM109.488 32.8838L110.398 35.0477H108.607L109.488 32.8838ZM113.246 36.2972C113.834 36.2972 114.304 35.9619 114.509 35.4134H114.348C114.142 35.8705 113.746 36.1448 113.246 36.1448C112.556 36.1448 112.028 35.581 112.028 34.8496C112.028 34.1181 112.556 33.5543 113.246 33.5543C113.746 33.5543 114.142 33.8286 114.333 34.2705H114.494C114.304 33.7372 113.834 33.3867 113.246 33.3867C112.468 33.3867 111.866 34.0115 111.866 34.8343C111.866 35.6724 112.468 36.2972 113.246 36.2972ZM118.062 33.4629L118.048 34.1943C117.827 33.7219 117.387 33.4172 116.814 33.4172C116.036 33.4172 115.449 34.0419 115.449 34.8648C115.449 35.6877 116.036 36.3124 116.814 36.3124C117.372 36.3124 117.827 36.0076 118.048 35.5353L118.062 36.2667H118.194V33.4781H118.062V33.4629ZM116.814 36.1448C116.124 36.1448 115.596 35.5962 115.596 34.8496C115.596 34.1181 116.124 33.5543 116.814 33.5543C117.519 33.5543 118.033 34.1029 118.033 34.8496C118.033 35.5962 117.519 36.1448 116.814 36.1448ZM122.012 32.4724V34.1638C121.792 33.7067 121.351 33.4019 120.793 33.4019C120 33.4019 119.428 34.0267 119.428 34.8496C119.428 35.6724 120.015 36.2972 120.793 36.2972C121.351 36.2972 121.792 35.9924 122.012 35.5353L122.041 36.2515H122.173V32.4724H122.012ZM120.793 36.1448C120.103 36.1448 119.575 35.5962 119.575 34.8496C119.575 34.1181 120.103 33.5543 120.793 33.5543C121.498 33.5543 122.012 34.1029 122.012 34.8496C122.012 35.5962 121.498 36.1448 120.793 36.1448ZM126.064 34.8343C126.064 34.0267 125.521 33.4019 124.743 33.4019C123.979 33.4019 123.392 34.0267 123.392 34.8496C123.392 35.6724 123.979 36.2972 124.743 36.2972C125.301 36.2972 125.727 35.9924 125.976 35.4438H125.8C125.58 35.8705 125.213 36.1296 124.728 36.1296C124.067 36.1296 123.554 35.6115 123.539 34.8953H126.05C126.064 34.88 126.064 34.8496 126.064 34.8343ZM124.743 33.5543C125.374 33.5543 125.873 34.0267 125.903 34.7429H123.554C123.598 34.0572 124.097 33.5543 124.743 33.5543ZM130.205 33.4019C129.75 33.4019 129.382 33.6762 129.236 34.1181C129.118 33.6762 128.81 33.4019 128.384 33.4019C127.958 33.4019 127.606 33.6305 127.444 34.0267L127.415 33.4629H127.283V36.2515H127.444V34.621C127.444 33.9962 127.826 33.5543 128.355 33.5543C128.825 33.5543 129.118 33.9353 129.118 34.5296V36.2515H129.28V34.621C129.28 33.9962 129.661 33.5543 130.19 33.5543C130.66 33.5543 130.954 33.9353 130.954 34.5296V36.2515H131.115V34.4838C131.1 33.8438 130.748 33.4019 130.205 33.4019ZM134.521 33.4629L133.42 35.9162L132.26 33.4629H132.084L133.347 36.0991L133.185 36.4496C132.95 36.9677 132.774 37.0896 132.392 37.0896H132.187V37.2419H132.392C132.818 37.2419 133.053 37.0743 133.317 36.4953L134.683 33.4629H134.521Z" fill="white"/>
</g>
<defs>
<linearGradient id="paint0_linear_169_15610" x1="17.1858" y1="0" x2="17.1858" y2="15.3438" gradientUnits="userSpaceOnUse">
<stop stop-color="#EDD999"/>
<stop offset="1" stop-color="#B09263"/>
</linearGradient>
<clipPath id="clip0_169_15610">
<rect width="134.947" height="40" fill="white"/>
</clipPath>
</defs>
</svg>
