<svg width="136" height="180" viewBox="0 0 136 180" fill="none" xmlns="http://www.w3.org/2000/svg">
<path fill-rule="evenodd" clip-rule="evenodd" d="M31.4091 26.0786C21.4422 20.362 9.48137 16.1403 3.00697 14.3313C2.71909 18.6494 2.40884 22.9293 2.10078 27.1788C-0.232816 59.3702 -2.44039 89.8231 6.16125 121.988C14.4584 152.914 30.847 180.068 67.807 180C104.767 180 121.224 152.914 129.453 121.988C138.054 89.8231 135.847 59.3701 133.513 27.1787C133.205 22.9292 132.895 18.6493 132.607 14.3313C123.514 16.9388 103.6 24.2397 93.5856 33.6919C91.479 37.196 90.9892 41.0624 92.9038 45.3256C99.8796 60.7538 97.8567 65.86 95.1736 72.6325C94.2433 74.9805 93.2338 77.5288 92.4923 80.777C91.6392 84.564 90.9755 88.2815 90.3212 91.9469C88.8191 100.361 87.3661 108.499 83.7838 116.571L82.9609 126.24C85.9781 133.303 82.4809 147.154 77.8181 150.788C75.0752 152.983 70.8238 153.943 66.5723 153.874C62.3209 153.943 58.0695 152.914 55.3266 150.788C50.6638 147.086 47.1666 133.303 50.1838 126.24L49.4295 116.571C45.8901 108.536 44.4191 100.367 42.899 91.9252C42.2398 88.2643 41.5713 84.552 40.7209 80.777C39.9921 77.506 38.9867 74.9448 38.0596 72.5831C35.4108 65.8351 33.4015 60.7163 40.3095 45.3256C43.4313 38.4 39.0259 31.8256 31.4091 26.0786Z" fill="white"/>
<path fill-rule="evenodd" clip-rule="evenodd" d="M67.8753 0C66.8467 9.66857 63.3495 25.9886 61.5667 36.5486C59.5781 48.2743 52.721 67.7486 66.5724 68.9828C66.9838 68.9828 67.3267 69.0514 67.6695 69.0514H67.8067H67.9438C68.2867 69.0514 68.6981 69.0514 69.041 68.9828C82.8924 67.7486 76.0352 48.2743 74.0467 36.5486C72.3324 25.9886 68.9038 9.66857 67.8753 0Z" fill="url(#paint0_linear_169_15598)"/>
<defs>
<linearGradient id="paint0_linear_169_15598" x1="67.8417" y1="0" x2="67.8417" y2="69.0472" gradientUnits="userSpaceOnUse">
<stop stop-color="#EDD999"/>
<stop offset="1" stop-color="#B09263"/>
</linearGradient>
</defs>
</svg>
